<svg xmlns="http://www.w3.org/2000/svg" viewBox="0 0 900 720" role="img" aria-labelledby="title desc">
  <title id="title">Zanmart Food Delivery Logo</title>
  <desc id="desc">Green and orange Zanmart food delivery logo with stylized Z, plate, fork, spoon, and tagline.</desc>
  <defs><linearGradient id="z-green" x1="0" x2="1" y1="0" y2="1"><stop offset="0" stop-color="#42b72a"/><stop offset="1" stop-color="#006b35"/></linearGradient><linearGradient id="orange-swoosh" x1="0" x2="1" y1="0" y2="1"><stop offset="0" stop-color="#ffc400"/><stop offset="1" stop-color="#f26a00"/></linearGradient></defs>
  <rect width="900" height="720" fill="#ffffff"/><g transform="translate(145 60)"><path d="M110 0h330c30 0 43 36 22 58L274 252h166c30 0 43 37 21 59l-83 84H48c-30 0-43-36-22-58l190-195H62c-30 0-43-36-22-58L86 36c7-8 14-36 24-36z" fill="url(#z-green)"/><g fill="#008c45"><rect x="0" y="92" width="42" height="18" rx="9"/><rect x="54" y="92" width="126" height="18" rx="9"/><rect x="-38" y="132" width="80" height="18" rx="9"/><rect x="56" y="132" width="92" height="18" rx="9"/><rect x="-2" y="172" width="116" height="18" rx="9"/></g><path d="M70 370c93 82 287 88 421-22 62-51 107-105 156-176-31 122-94 217-188 276C311 541 123 491 30 395c-29-30 6-56 40-25z" fill="url(#orange-swoosh)"/><g transform="translate(288 195)" fill="none" stroke="#008c45" stroke-linecap="round" stroke-linejoin="round" stroke-width="15"><path d="M0 135h244"/><path d="M34 130c8-65 58-108 120-108s112 43 120 108"/><path d="M142 18v-18h24v18"/><path d="M78 122c28-36 125-36 154 0"/></g><g transform="translate(600 97)" fill="#ff7a00"><rect x="0" y="0" width="7" height="140" rx="4"/><rect x="17" y="0" width="7" height="140" rx="4"/><rect x="34" y="0" width="7" height="140" rx="4"/><path d="M0 132h41v70c0 16-11 30-25 30S0 218 0 202z"/><ellipse cx="92" cy="66" rx="28" ry="62"/><path d="M88 121h11v113H88z"/></g></g><text x="108" y="575" font-family="Arial Black, Arial, sans-serif" font-size="118" font-weight="900" fill="#006b35">zan</text><text x="318" y="575" font-family="Arial Black, Arial, sans-serif" font-size="118" font-style="italic" font-weight="900" fill="#f26a00">mart</text><path d="M680 470c27-34 61-42 93-33-10 36-39 54-88 55z" fill="#3dae2b"/><text x="310" y="635" font-family="Arial, sans-serif" font-size="42" font-weight="800" letter-spacing="8" fill="#006b35">FOOD DELIVERY</text><path d="M218 620h82M604 620h82" stroke="#006b35" stroke-width="6" stroke-linecap="round"/><text x="322" y="690" font-family="Arial, sans-serif" font-size="31" font-weight="700" fill="#006b35">Good Food.</text><text x="495" y="690" font-family="Arial, sans-serif" font-size="31" font-weight="700" fill="#f26a00">Fast Delivery.</text>
</svg>
